<svg xmlns="http://www.w3.org/2000/svg" xmlns:xlink="http://www.w3.org/1999/xlink" fill="none" aria-hidden="true"><symbol id="check" fill="currentColor" viewBox="0 0 20 20"><path d="M16.707 5.293a1 1 0 00-1.414 0L8 12.586 4.707 9.293a1 1 0 00-1.414 1.414l4 4a1 1 0 001.414 0l8-8a1 1 0 000-1.414z" clipRule="evenodd" fillRule="evenodd"/></symbol><symbol id="calendar" fill="currentColor" stroke="currentColor" viewBox="0 0 256 256"><path d="M208,32H184V24a8,8,0,0,0-16,0v8H88V24a8,8,0,0,0-16,0v8H48A16,16,0,0,0,32,48V208a16,16,0,0,0,16,16H208a16,16,0,0,0,16-16V48A16,16,0,0,0,208,32ZM169.66,133.66l-48,48a8,8,0,0,1-11.32,0l-24-24a8,8,0,0,1,11.32-11.32L116,164.69l42.34-42.35a8,8,0,0,1,11.32,11.32ZM48,80V48H72v8a8,8,0,0,0,16,0V48h80v8a8,8,0,0,0,16,0V48h24V80Z"/></symbol></svg>